<?xml version="1.0" encoding="utf-8"?>
<!-- Generator: Adobe Illustrator 23.0.2, SVG Export Plug-In . SVG Version: 6.00 Build 0)  -->
<svg version="1.1" id="Layer_1" xmlns="http://www.w3.org/2000/svg" xmlns:xlink="http://www.w3.org/1999/xlink" x="0px" y="0px"
	 viewBox="0 0 1373 248" style="enable-background:new 0 0 1373 248;" xml:space="preserve">
<style type="text/css">
	.st0{fill:#0A2626;}
	.st1{fill:url(#SVGID_1_);}
	.st2{opacity:0.1;fill:#24374D;}
	.st3{opacity:0.9;fill:url(#SVGID_2_);}
	.st4{opacity:0.9;fill:url(#SVGID_3_);}
	.st5{opacity:0.9;fill:url(#SVGID_4_);}
	.st6{opacity:0.9;fill:url(#SVGID_5_);}
	.st7{opacity:0.9;fill:#97E0FF;}
	.st8{fill:url(#SVGID_6_);}
</style>
<g>
	<path class="st0" d="M368.9,65.6c7.2,3.2,12.5,8.3,16.1,15.6c3.5,7.2,5.3,17,5.3,29.2v83.3h-23.7l-2.2-14h-1.4
		c-3.2,5.6-7.4,9.7-12.6,12.3c-5.2,2.6-11.1,4-17.9,4c-7.1,0-13.4-1.5-18.8-4.4c-5.4-3-9.6-7.2-12.6-12.8c-3-5.6-4.5-12.1-4.5-19.6
		c0-12.4,3.7-21.9,11.1-28.7c7.4-6.8,19.2-10.7,35.2-11.9l19.2-1.8v-7.7c0-6.2-0.9-11.1-2.7-14.7c-1.8-3.6-4.6-6.1-8.5-7.6
		c-3.8-1.5-8.9-2.3-15.3-2.3c-4.6,0-9.6,0.4-15,1.3c-5.4,0.8-10.5,2.1-15.6,3.7V65.8c5.1-1.5,10.9-2.7,17.4-3.6
		c6.5-0.9,12.6-1.3,18.5-1.3C352.3,60.9,361.7,62.5,368.9,65.6z M352.7,171.4c3.5-1.7,6.6-4.5,9.3-8.4v-28.4l-16.2,1.6
		c-13.9,1.2-20.9,7.8-20.9,19.6c0,6.1,1.5,10.6,4.4,13.6c3,3,7.1,4.5,12.6,4.5C345.7,173.9,349.3,173,352.7,171.4z"/>
	<path class="st0" d="M483.8,169.5v24.2c-6.3,1.5-12.9,2.3-19.7,2.3c-13.7,0-24-3.6-31.2-10.8c-7.1-7.2-10.7-18.7-10.7-34.5V86h-20
		V62.9h20l5.2-46.6h23.8v46.6h31.4V86h-31.4v61.1c0,6,0.7,10.7,2,14.1c1.4,3.4,3.5,5.9,6.4,7.4c2.9,1.5,6.8,2.2,11.6,2.2
		C474.3,170.9,478.4,170.4,483.8,169.5z"/>
	<path class="st0" d="M560.8,169.5v24.2c-6.3,1.5-12.9,2.3-19.7,2.3c-13.7,0-24-3.6-31.2-10.8c-7.1-7.2-10.7-18.7-10.7-34.5V86h-20
		V62.9h20l5.2-46.6h23.8v46.6h31.4V86h-31.4v61.1c0,6,0.7,10.7,2,14.1c1.4,3.4,3.5,5.9,6.4,7.4c2.9,1.5,6.8,2.2,11.6,2.2
		C551.3,170.9,555.5,170.4,560.8,169.5z"/>
	<path class="st0" d="M667.2,137.6h-68.4c0.3,8.9,1.6,15.8,4,20.9c2.3,5,5.9,8.6,10.7,10.8c4.8,2.2,11.2,3.2,19.2,3.2
		c8.2,0,17.7-1.5,28.5-4.6v23.6c-5.8,1.6-11.3,2.8-16.4,3.5c-5.1,0.7-10.3,1.1-15.6,1.1c-13.9,0-25.2-2.3-34-6.9
		s-15.2-11.9-19.5-21.8s-6.4-23.1-6.4-39.5c0-22.4,4.4-39.1,13.2-50.3c8.8-11.1,21.3-16.7,37.4-16.7c31.5,0,47.2,22.6,47.2,67.8
		V137.6z M608.7,84.1c-3,2.2-5.4,6.1-7.1,11.7c-1.8,5.6-2.7,13.3-2.8,23.1h41.1c-0.1-9.8-0.9-17.5-2.5-23.1
		c-1.6-5.6-3.8-9.5-6.7-11.7c-2.9-2.2-6.5-3.4-10.8-3.4C615.4,80.8,611.7,81.9,608.7,84.1z"/>
	<path class="st0" d="M686.3,62.9h24.2l2.2,14h1.6c4.2-5.2,9-9.2,14.7-11.9c5.6-2.8,11.8-4.1,18.6-4.1c11.1,0,19.9,3.5,26.4,10.5
		c6.5,7,9.8,18.2,9.8,33.7v88.6h-29v-86.4c0-7.3-1.5-12.6-4.4-15.7c-3-3.1-7.2-4.7-12.6-4.7c-4.2,0-8.3,1-12.5,3.1
		c-4.2,2-7.5,5.1-9.9,9.3v94.4h-29V62.9z"/>
	<path class="st0" d="M825.5,189.5c-6.8-4.4-12.1-11.5-16.2-21.2c-4-9.7-6.1-22.2-6.1-37.3c0-23.5,5.2-41,15.6-52.6
		C829.3,66.8,845.2,61,866.5,61c2.9,0,6,0.2,9.3,0.6V0h29v193.7h-24.6l-2-13.7h-1.6c-2.7,4.9-6.5,8.8-11.4,11.7
		c-4.9,2.9-10.6,4.4-17.1,4.4C839.8,196.1,832.2,193.9,825.5,189.5z M867.8,168.7c3.4-1.8,6.1-4.2,8.1-7.3V84.7
		c-4.3-0.6-8.2-1-11.6-1c-7,0-12.8,1.4-17.4,4.3c-4.6,2.8-8,7.5-10.4,14c-2.4,6.5-3.5,15.2-3.5,26.2c0,11.3,1,20.1,3,26.4
		c2,6.4,4.8,10.7,8.3,13.1s7.8,3.6,12.8,3.6C860.8,171.4,864.4,170.5,867.8,168.7z"/>
	<path class="st0" d="M1023.2,137.6h-68.4c0.3,8.9,1.6,15.8,4,20.9c2.3,5,5.9,8.6,10.7,10.8c4.8,2.2,11.2,3.2,19.2,3.2
		c8.2,0,17.7-1.5,28.5-4.6v23.6c-5.8,1.6-11.3,2.8-16.4,3.5c-5.1,0.7-10.3,1.1-15.6,1.1c-13.9,0-25.2-2.3-34-6.9
		s-15.2-11.9-19.5-21.8s-6.4-23.1-6.4-39.5c0-22.4,4.4-39.1,13.2-50.3c8.8-11.1,21.3-16.7,37.4-16.7c31.5,0,47.2,22.6,47.2,67.8
		V137.6z M964.6,84.1c-3,2.2-5.4,6.1-7.1,11.7c-1.8,5.6-2.7,13.3-2.8,23.1h41.1c-0.1-9.8-0.9-17.5-2.5-23.1
		c-1.6-5.6-3.8-9.5-6.7-11.7c-2.9-2.2-6.5-3.4-10.8-3.4C971.4,80.8,967.6,81.9,964.6,84.1z"/>
	<path class="st0" d="M1058.9,189.5c-6.8-4.4-12.1-11.5-16.2-21.2c-4-9.7-6.1-22.2-6.1-37.3c0-23.5,5.2-41,15.6-52.6
		c10.4-11.6,26.3-17.4,47.6-17.4c2.9,0,6,0.2,9.3,0.6V0h29v193.7h-24.6l-2-13.7h-1.6c-2.7,4.9-6.5,8.8-11.4,11.7
		c-4.9,2.9-10.6,4.4-17.1,4.4C1073.3,196.1,1065.7,193.9,1058.9,189.5z M1101.2,168.7c3.4-1.8,6.1-4.2,8.1-7.3V84.7
		c-4.3-0.6-8.2-1-11.6-1c-7,0-12.8,1.4-17.4,4.3c-4.6,2.8-8,7.5-10.4,14c-2.4,6.5-3.5,15.2-3.5,26.2c0,11.3,1,20.1,3,26.4
		c2,6.4,4.8,10.7,8.3,13.1s7.8,3.6,12.8,3.6C1094.3,171.4,1097.8,170.5,1101.2,168.7z"/>
	<path class="st0" d="M1164.8,190.2c-3.6-3.5-5.4-8.1-5.4-14c0-5.9,1.8-10.6,5.3-14.1c3.6-3.5,8.2-5.2,14.1-5.2
		c5.9,0,10.6,1.8,14.2,5.3c3.6,3.5,5.3,8.2,5.3,14c0,5.8-1.8,10.4-5.4,13.9c-3.6,3.5-8.3,5.3-14.1,5.3
		C1173.1,195.5,1168.4,193.7,1164.8,190.2z"/>
	<path class="st0" d="M1219.4,36.1c-3.2-3-4.7-7.1-4.7-12.6s1.6-9.6,4.7-12.6c3.2-3,7.8-4.5,14-4.5c6.1,0,10.8,1.5,14,4.6
		s4.8,7.2,4.8,12.6c0,5.4-1.6,9.6-4.7,12.6c-3.2,3-7.8,4.4-14.1,4.4C1227.2,40.5,1222.6,39,1219.4,36.1z M1218.9,193.7V62.9h29.1
		v130.7H1218.9z"/>
	<path class="st0" d="M1281.9,179.7c-9-10.9-13.5-27.9-13.5-50.9c0-45.3,17.5-68,52.4-68c16.8,0,29.7,5.6,38.8,16.7
		c9.1,11.1,13.6,28.1,13.6,51.1c0,45-17.5,67.5-52.4,67.5C1303.9,196.1,1290.9,190.6,1281.9,179.7z M1333.1,170.1
		c3.2-2.6,5.7-7.1,7.5-13.7c1.8-6.6,2.6-15.7,2.6-27.3c0-12-0.9-21.3-2.6-28c-1.8-6.7-4.3-11.4-7.5-14c-3.3-2.6-7.4-4-12.3-4
		c-5,0-9.2,1.3-12.5,3.9c-3.3,2.6-5.8,7.2-7.5,13.8c-1.8,6.6-2.6,15.8-2.6,27.6c0,11.9,0.9,21.2,2.6,27.8c1.8,6.6,4.3,11.2,7.5,13.8
		c3.2,2.6,7.4,3.9,12.5,3.9C1325.8,173.9,1329.9,172.6,1333.1,170.1z"/>
</g>
<g>
	<g>
		<linearGradient id="SVGID_1_" gradientUnits="userSpaceOnUse" x1="106.9073" y1="13.0132" x2="106.9073" y2="247.9069">
			<stop  offset="1.210741e-02" style="stop-color:#FF4040"/>
			<stop  offset="5.244251e-02" style="stop-color:#FF2828"/>
			<stop  offset="0.101" style="stop-color:#FE1213"/>
			<stop  offset="0.1476" style="stop-color:#FE0505"/>
			<stop  offset="0.1897" style="stop-color:#FE0001"/>
			<stop  offset="0.3896" style="stop-color:#FA0208"/>
			<stop  offset="0.6732" style="stop-color:#ED091A"/>
			<stop  offset="1" style="stop-color:#D91438"/>
		</linearGradient>
		<path class="st1" d="M32.3,203.2c14.4,14.5,74.6,44.7,74.6,44.7s60.2-30.2,74.6-44.7c43.1-43.5,43.1-114.1,0-157.7
			C160.8,24.6,134,13.9,106.9,13C79.8,13.9,53,24.6,32.3,45.5C-10.8,89-10.8,159.7,32.3,203.2z"/>
		<path class="st2" d="M182.1,77.8c-19-32.1-47.5-32.8-75.2-19.5C79.2,45,50.7,45.7,31.7,77.8c-12.8,21.7-10.8,40-0.1,54.7
			c-7.9,14.6-11,27.3-7,34.1c7.4,12.6,44.8,14.5,82.3,6.2c37.5,8.3,74.9,6.4,82.3-6.2c4-6.8,0.9-19.5-7-34.1
			C192.8,117.8,194.9,99.5,182.1,77.8z"/>
		<g>
			<linearGradient id="SVGID_2_" gradientUnits="userSpaceOnUse" x1="48.6568" y1="178.6511" x2="69.8419" y2="152.1646">
				<stop  offset="0" style="stop-color:#9FE3FC"/>
				<stop  offset="0.1363" style="stop-color:#96DEFC"/>
				<stop  offset="0.6772" style="stop-color:#76CDFC"/>
				<stop  offset="0.977" style="stop-color:#6AC7FC"/>
			</linearGradient>
			<path class="st3" d="M34.6,131.7c-7.6,14-10.6,26.2-6.7,32.7c7.1,12.1,43.1,13.9,79,5.9C77.7,163.9,48.5,150.9,34.6,131.7z"/>
			<linearGradient id="SVGID_3_" gradientUnits="userSpaceOnUse" x1="171.0073" y1="68.5181" x2="150.1227" y2="89.0956">
				<stop  offset="0" style="stop-color:#9FE3FC"/>
				<stop  offset="0.1363" style="stop-color:#96DEFC"/>
				<stop  offset="0.6772" style="stop-color:#76CDFC"/>
				<stop  offset="0.977" style="stop-color:#6AC7FC"/>
			</linearGradient>
			<path class="st4" d="M179.2,131.7c10.2-14.1,12.2-31.7-0.1-52.5c-18.2-30.8-45.6-31.5-72.2-18.7
				C136.7,74.8,165.5,106.2,179.2,131.7z"/>
			<linearGradient id="SVGID_4_" gradientUnits="userSpaceOnUse" x1="53.0098" y1="77.3167" x2="86.1276" y2="112.2867">
				<stop  offset="8.960704e-04" style="stop-color:#FCB0DA"/>
				<stop  offset="0.4762" style="stop-color:#FCA1D6"/>
				<stop  offset="1" style="stop-color:#FC95D3"/>
			</linearGradient>
			<path class="st5" d="M106.9,60.4c-26.6-12.8-54-12.1-72.2,18.7c-12.3,20.9-10.3,38.4-0.1,52.5C48.4,106.2,77.1,74.8,106.9,60.4z"
				/>
			<linearGradient id="SVGID_5_" gradientUnits="userSpaceOnUse" x1="172.2095" y1="180.7356" x2="145.3303" y2="153.3364">
				<stop  offset="8.960704e-04" style="stop-color:#FCB0DA"/>
				<stop  offset="0.4762" style="stop-color:#FCA1D6"/>
				<stop  offset="1" style="stop-color:#FC95D3"/>
			</linearGradient>
			<path class="st6" d="M179.2,131.7c-13.9,19.3-43.1,32.2-72.3,38.7c36,8,71.9,6.1,79-5.9C189.8,157.9,186.8,145.7,179.2,131.7z"/>
			<path class="st7" d="M179.2,131.7c-13.7-25.5-42.5-56.9-72.3-71.2c-29.8,14.4-58.6,45.8-72.3,71.2c13.9,19.3,43.1,32.2,72.3,38.7
				C136.1,163.9,165.3,150.9,179.2,131.7z"/>
			
				<radialGradient id="SVGID_6_" cx="106.9067" cy="115.398" r="87.7122" fx="106.6238" fy="119.8383" gradientUnits="userSpaceOnUse">
				<stop  offset="1.210741e-02" style="stop-color:#FAFAFA"/>
				<stop  offset="0.2976" style="stop-color:#F9F6FA"/>
				<stop  offset="0.6075" style="stop-color:#F5E9FB"/>
				<stop  offset="0.9278" style="stop-color:#EED3FC"/>
				<stop  offset="1" style="stop-color:#ECCDFC"/>
			</radialGradient>
			<path class="st8" d="M179.2,131.7c-13.7-25.5-42.5-56.9-72.3-71.2c-29.8,14.4-58.6,45.8-72.3,71.2c13.9,19.3,43.1,32.2,72.3,38.7
				C136.1,163.9,165.3,150.9,179.2,131.7z"/>
		</g>
	</g>
</g>
</svg>
