<?xml version="1.0" standalone="no"?>
<!DOCTYPE svg PUBLIC "-//W3C//DTD SVG 20010904//EN"
 "http://www.w3.org/TR/2001/REC-SVG-20010904/DTD/svg10.dtd">
<svg version="1.0" xmlns="http://www.w3.org/2000/svg"
 width="1024.000000pt" height="1024.000000pt" viewBox="0 0 1024.000000 1024.000000"
 preserveAspectRatio="xMidYMid meet">
<metadata>
Created by potrace 1.11, written by Peter Selinger 2001-2013
</metadata>
<g transform="translate(0.000000,1024.000000) scale(0.100000,-0.100000)"
fill="#000000" stroke="none">
<path d="M4959 10076 c-2 -2 -47 -7 -99 -11 -52 -4 -102 -9 -110 -10 -8 -1
-46 -5 -85 -10 -38 -4 -79 -9 -90 -11 -11 -2 -49 -9 -85 -15 -968 -155 -1878
-618 -2564 -1304 -163 -162 -204 -206 -308 -332 -449 -541 -764 -1155 -938
-1827 -22 -83 -41 -162 -44 -176 -3 -14 -10 -50 -16 -80 -6 -30 -13 -66 -15
-80 -3 -14 -7 -36 -10 -49 -2 -13 -7 -49 -11 -80 -3 -31 -8 -58 -9 -61 -2 -3
-6 -34 -10 -70 -4 -36 -9 -76 -10 -90 -27 -214 -27 -723 0 -975 5 -50 25 -198
30 -230 3 -16 10 -57 16 -90 29 -175 79 -385 137 -575 82 -271 241 -646 369
-870 11 -19 35 -62 54 -95 87 -154 218 -349 358 -530 83 -107 97 -124 191
-230 108 -122 314 -319 410 -392 155 -118 438 -310 605 -410 11 -6 94 -57 185
-111 91 -55 207 -124 258 -154 51 -29 107 -61 125 -72 73 -42 391 -218 507
-281 69 -38 143 -78 165 -90 22 -12 90 -48 150 -80 61 -32 137 -73 170 -90
107 -57 364 -190 600 -310 l230 -117 240 122 c429 218 707 364 1075 565 113
62 228 124 255 139 28 15 57 31 65 37 8 5 101 58 205 117 408 234 572 334 860
525 266 177 412 294 579 468 455 472 801 1028 1025 1647 45 124 113 336 126
394 2 13 14 59 25 102 10 44 22 91 24 105 3 14 7 37 10 51 17 75 58 333 71
455 27 236 27 781 0 970 -2 17 -6 53 -9 80 -3 28 -13 95 -22 150 -8 55 -17
109 -18 120 -36 230 -150 631 -257 900 -77 193 -211 466 -309 630 -16 28 -33
57 -37 65 -13 30 -229 346 -278 409 -69 88 -192 236 -240 290 -71 79 -298 305
-380 378 -342 305 -788 595 -1185 771 -25 11 -67 29 -95 42 -109 48 -424 162
-481 175 -10 2 -57 15 -104 29 -169 50 -475 115 -616 131 -28 3 -59 7 -70 9
-10 2 -55 7 -98 11 -43 4 -88 9 -100 11 -25 6 -412 15 -417 10z m-919 -1521
c47 -4 92 -8 100 -10 8 -1 40 -6 70 -11 30 -4 57 -8 60 -9 3 -1 23 -5 45 -9
206 -40 473 -123 689 -215 l111 -47 114 49 c282 119 593 206 871 242 182 25
456 24 620 0 80 -12 115 -18 205 -40 643 -152 1200 -648 1560 -1390 266 -547
319 -1061 160 -1555 -47 -146 -114 -289 -220 -467 l-19 -31 45 -94 c75 -153
98 -204 135 -301 101 -262 143 -442 149 -637 4 -131 -2 -183 -35 -290 -97
-324 -494 -541 -1141 -625 -15 -2 -58 -7 -95 -11 -38 -3 -82 -8 -99 -10 -208
-21 -669 -21 -960 1 -106 8 -211 17 -240 20 -91 10 -135 15 -185 20 -30 4 -66
8 -80 10 -14 2 -45 7 -70 10 -71 9 -302 44 -330 50 -14 3 -52 10 -85 16 -33 6
-114 22 -181 35 -117 24 -123 24 -195 8 -41 -8 -85 -18 -99 -20 -14 -3 -63
-12 -110 -20 -47 -9 -94 -18 -105 -20 -10 -2 -37 -6 -60 -9 -22 -3 -47 -8 -55
-10 -8 -2 -38 -7 -66 -10 -28 -3 -61 -8 -75 -10 -13 -3 -44 -7 -69 -10 -25 -3
-58 -8 -75 -10 -104 -14 -259 -30 -380 -40 -38 -3 -88 -8 -110 -10 -62 -6
-378 -18 -495 -18 -123 0 -445 11 -476 17 -11 2 -52 7 -90 10 -38 4 -85 9
-104 11 -19 3 -55 8 -80 11 -153 18 -410 85 -558 145 -147 60 -247 124 -342
219 -143 143 -190 262 -195 490 -2 115 1 155 25 272 44 218 126 446 249 697
28 57 51 108 51 114 0 6 -20 42 -44 81 -40 65 -124 230 -153 302 -17 41 -71
214 -77 244 -3 14 -7 36 -11 50 -11 52 -15 76 -21 125 -3 28 -9 78 -13 113
-19 156 12 495 58 647 5 17 21 70 36 119 67 229 269 636 397 801 5 6 40 52 78
104 488 660 1177 977 1970 906z"/>
<path d="M3603 8233 c-572 -64 -1048 -393 -1414 -978 -62 -99 -185 -334 -223
-425 -45 -112 -103 -304 -119 -400 -13 -74 -18 -109 -22 -145 -7 -57 -7 -273
-1 -315 3 -19 7 -51 10 -70 11 -74 36 -180 61 -256 47 -139 125 -293 125 -246
0 13 236 364 320 477 73 98 249 325 260 335 3 3 38 46 79 95 41 50 95 113 120
140 25 28 87 96 136 150 229 254 561 570 845 805 276 229 724 541 934 650 25
13 26 16 10 19 -10 2 -23 7 -29 11 -11 8 -177 61 -270 85 -281 73 -568 97
-822 68z"/>
<path d="M6257 8243 c-2 -1 -32 -5 -67 -8 -36 -4 -103 -13 -150 -22 -47 -8
-94 -17 -105 -18 -62 -9 -296 -75 -392 -111 -38 -14 -58 -34 -34 -34 22 0 487
-294 554 -350 6 -5 73 -56 147 -111 351 -263 778 -654 1090 -998 47 -52 90
-99 95 -105 34 -35 205 -239 290 -346 95 -118 134 -170 266 -350 65 -88 247
-363 255 -385 11 -27 21 -16 62 73 66 143 109 290 132 452 11 75 13 293 5 360
-25 188 -71 363 -140 531 -174 426 -462 820 -775 1061 -85 65 -211 148 -225
148 -4 0 -19 8 -33 18 -70 49 -318 138 -451 162 -31 5 -66 12 -78 14 -75 15
-435 30 -446 19z"/>
<path d="M5085 7887 c-11 -7 -65 -36 -120 -66 -125 -67 -270 -154 -400 -240
-100 -65 -370 -256 -391 -276 -6 -5 -26 -21 -44 -35 -59 -44 -323 -265 -395
-331 -396 -363 -724 -718 -1028 -1114 -117 -152 -267 -362 -267 -374 0 -5 -4
-11 -8 -13 -7 -3 -134 -199 -201 -311 l-23 -38 39 -47 c67 -83 251 -259 364
-349 321 -257 673 -461 1135 -658 217 -93 644 -242 859 -301 114 -31 360 -94
385 -99 14 -3 41 -9 60 -15 53 -15 79 -13 213 20 1165 284 2057 722 2606 1279
45 47 99 104 118 128 l35 43 -63 102 c-100 165 -351 534 -378 558 -4 3 -31 39
-62 80 -257 345 -712 835 -1058 1139 -36 31 -76 67 -90 80 -51 46 -318 259
-411 327 -238 174 -470 323 -680 437 -179 97 -164 91 -195 74z"/>
<path d="M1982 4638 c-57 -135 -134 -371 -146 -448 -30 -190 -26 -292 15 -387
41 -96 182 -195 369 -261 73 -25 227 -66 295 -77 166 -29 198 -33 365 -50 221
-21 786 -22 955 -1 17 2 68 7 115 11 47 3 99 8 115 10 17 2 61 6 98 10 38 4
77 8 87 10 10 2 39 7 65 11 l47 7 -173 57 c-873 287 -1567 677 -2035 1141
l-111 111 -61 -144z"/>
<path d="M8095 4689 c-115 -116 -292 -266 -445 -375 -442 -318 -1053 -612
-1680 -809 l-104 -33 44 -7 c25 -4 61 -9 80 -11 19 -2 55 -6 80 -9 73 -9 152
-16 330 -31 254 -20 830 -20 937 0 10 2 53 7 95 10 41 4 84 8 94 10 11 2 41 7
67 10 27 4 59 9 70 12 12 2 38 7 57 10 58 9 257 63 323 88 151 57 262 131 316
212 83 127 71 371 -35 676 -30 86 -133 338 -138 338 -1 0 -42 -41 -91 -91z"/>
</g>
</svg>
