<?xml version="1.0" standalone="no"?>
<!DOCTYPE svg PUBLIC "-//W3C//DTD SVG 20010904//EN"
 "http://www.w3.org/TR/2001/REC-SVG-20010904/DTD/svg10.dtd">
<svg version="1.0" xmlns="http://www.w3.org/2000/svg"
 width="1024.000000pt" height="1024.000000pt" viewBox="0 0 1024.000000 1024.000000"
 preserveAspectRatio="xMidYMid meet">
<metadata>
Created by potrace 1.11, written by Peter Selinger 2001-2013
</metadata>
<g transform="translate(0.000000,1024.000000) scale(0.100000,-0.100000)"
fill="#000000" stroke="none">
<path d="M4979 10226 c-2 -2 -51 -7 -108 -11 -57 -3 -111 -8 -120 -10 -17 -3
-92 -13 -156 -21 -22 -2 -65 -9 -95 -14 -30 -5 -68 -12 -85 -14 -492 -82
-1062 -291 -1525 -559 -178 -103 -446 -278 -470 -307 -3 -3 -21 -17 -40 -30
-19 -13 -37 -27 -40 -30 -3 -3 -39 -32 -80 -65 -203 -163 -449 -403 -625 -610
-410 -483 -703 -998 -906 -1595 -43 -126 -118 -384 -133 -460 -48 -238 -66
-334 -71 -380 -4 -30 -8 -57 -10 -60 -2 -3 -6 -41 -10 -85 -4 -44 -9 -82 -10
-85 -2 -3 -7 -54 -11 -115 -16 -210 -9 -754 11 -890 2 -16 7 -52 10 -80 11
-99 44 -303 60 -375 3 -14 8 -38 10 -55 3 -16 28 -116 55 -220 114 -444 296
-878 531 -1270 96 -159 269 -413 334 -488 6 -7 37 -46 70 -87 138 -173 330
-373 460 -479 189 -155 560 -406 903 -612 146 -88 449 -265 537 -314 28 -15
100 -55 160 -90 61 -34 142 -79 180 -100 39 -21 108 -59 155 -85 137 -75 205
-112 390 -210 96 -51 213 -113 260 -137 47 -25 181 -95 298 -155 l212 -109
238 122 c130 67 264 136 297 154 33 18 105 56 160 85 102 54 430 230 520 280
45 25 91 50 295 163 622 344 1253 743 1557 985 226 180 514 507 745 847 170
248 303 493 451 825 93 208 245 691 281 890 2 14 13 75 25 135 11 61 23 132
26 159 4 28 8 52 10 55 1 3 6 40 10 81 4 41 9 83 11 93 25 135 25 780 -1 997
-22 185 -31 249 -46 330 -6 30 -12 66 -14 80 -7 43 -23 122 -40 195 -9 39 -18
77 -20 85 -29 126 -135 456 -194 605 -474 1191 -1401 2152 -2561 2655 -41 17
-88 38 -105 45 -61 27 -286 105 -401 140 -277 85 -621 154 -894 181 -30 3 -68
7 -85 10 -38 6 -401 15 -406 10z m-894 -1886 c245 -27 469 -83 769 -193 l39
-14 -49 -28 c-277 -158 -445 -265 -643 -409 -73 -53 -138 -101 -145 -107 -6
-5 -51 -41 -101 -81 -117 -93 -329 -275 -429 -369 -205 -191 -466 -462 -635
-659 -40 -47 -83 -96 -95 -110 -92 -105 -322 -405 -407 -530 -24 -36 -46 -67
-49 -70 -12 -12 -230 -348 -230 -355 0 -8 -63 -105 -69 -105 -3 0 -21 33 -40
73 -97 205 -143 356 -171 562 -10 77 -10 329 0 386 4 24 11 67 14 94 4 28 9
58 12 67 3 9 7 25 9 35 53 261 202 595 395 884 55 83 114 164 130 179 3 3 25
30 50 60 174 215 412 407 650 522 176 86 398 150 563 164 39 4 73 8 75 9 9 8
271 4 357 -5z m2590 -14 c108 -20 285 -68 352 -97 55 -24 218 -104 248 -122
261 -159 472 -363 676 -655 43 -62 79 -115 79 -117 0 -2 22 -39 48 -82 139
-224 291 -616 317 -818 3 -22 8 -51 11 -65 3 -14 7 -101 9 -195 6 -257 -26
-434 -120 -667 -36 -91 -89 -190 -100 -190 -5 0 -20 19 -34 43 -38 71 -194
314 -203 317 -4 2 -8 8 -8 14 0 14 -202 295 -329 458 -109 139 -302 370 -376
450 -23 25 -73 79 -111 119 -209 226 -464 467 -744 705 -281 238 -729 544
-989 677 l-53 27 33 15 c186 84 524 168 804 200 82 10 407 -2 490 -17z m-1451
-566 c49 -28 91 -50 93 -50 7 0 224 -136 338 -213 159 -106 420 -304 540 -408
320 -278 562 -517 839 -829 100 -112 290 -349 394 -490 18 -25 48 -66 67 -92
61 -82 239 -350 285 -428 24 -41 49 -84 56 -95 11 -18 9 -24 -17 -55 -77 -88
-173 -183 -309 -304 -44 -39 -222 -170 -315 -232 -467 -311 -1101 -580 -1789
-759 -269 -70 -285 -73 -353 -55 -26 6 -59 14 -73 17 -74 13 -452 123 -630
182 -521 174 -979 392 -1338 637 -67 46 -128 88 -135 94 -7 6 -30 24 -52 41
-131 101 -287 246 -386 360 l-48 56 24 36 c14 20 25 38 25 41 0 6 36 63 148
236 365 561 927 1193 1457 1638 182 153 393 311 570 429 200 133 475 292 505
293 8 0 55 -23 104 -50z m-3112 -2887 c49 -64 225 -243 318 -323 118 -101 154
-129 279 -218 64 -45 121 -86 127 -91 6 -5 86 -54 179 -110 419 -252 982 -489
1533 -647 94 -26 128 -44 85 -42 -16 0 -91 -9 -134 -17 -9 -2 -40 -6 -69 -10
-29 -4 -62 -8 -73 -11 -10 -2 -45 -6 -76 -9 -31 -3 -69 -8 -86 -10 -16 -2 -61
-6 -100 -10 -38 -3 -83 -8 -100 -10 -202 -27 -892 -27 -1090 0 -16 2 -52 7
-80 10 -27 3 -61 7 -75 10 -14 2 -55 9 -92 15 -188 29 -421 105 -551 180 -132
75 -216 168 -258 285 -27 74 -34 270 -15 385 27 153 88 350 161 520 21 47 44
100 51 118 8 17 18 32 22 32 4 0 24 -21 44 -47z m6078 21 c6 -14 22 -51 36
-82 66 -143 125 -316 160 -467 32 -136 41 -337 19 -429 -54 -228 -259 -380
-642 -477 -117 -29 -249 -54 -343 -65 -30 -3 -68 -7 -85 -9 -242 -27 -826 -27
-1075 -1 -19 2 -69 7 -110 11 -96 8 -139 13 -187 19 -21 3 -60 8 -88 11 -27 3
-61 8 -75 10 -14 3 -38 7 -55 9 -50 7 -119 18 -139 22 -25 5 -33 14 -12 14 9
0 38 6 64 14 26 8 94 29 152 46 176 54 459 150 525 180 11 5 74 31 140 58 400
164 778 370 1087 594 198 144 467 391 564 519 21 27 42 49 46 49 5 0 13 -12
18 -26z"/>
</g>
</svg>
