<?xml version="1.0" encoding="utf-8"?>
<!-- Generator: Adobe Illustrator 23.0.2, SVG Export Plug-In . SVG Version: 6.00 Build 0)  -->
<svg version="1.1" id="Layer_1" xmlns="http://www.w3.org/2000/svg" xmlns:xlink="http://www.w3.org/1999/xlink" x="0px" y="0px"
	 viewBox="0 0 1861 2048" style="enable-background:new 0 0 1861 2048;" xml:space="preserve">
<style type="text/css">
	.st0{fill:url(#SVGID_1_);}
	.st1{opacity:0.1;fill:#24374D;}
	.st2{opacity:0.9;fill:url(#SVGID_2_);}
	.st3{opacity:0.9;fill:url(#SVGID_3_);}
	.st4{opacity:0.9;fill:url(#SVGID_4_);}
	.st5{opacity:0.9;fill:url(#SVGID_5_);}
	.st6{opacity:0.9;fill:#97E0FF;}
	.st7{fill:url(#SVGID_6_);}
</style>
<g>
	<g>
		<linearGradient id="SVGID_1_" gradientUnits="userSpaceOnUse" x1="932.1071" y1="0" x2="932.1071" y2="2048">
			<stop  offset="1.210741e-02" style="stop-color:#FF4040"/>
			<stop  offset="5.244251e-02" style="stop-color:#FF2828"/>
			<stop  offset="0.101" style="stop-color:#FE1213"/>
			<stop  offset="0.1476" style="stop-color:#FE0505"/>
			<stop  offset="0.1897" style="stop-color:#FE0001"/>
			<stop  offset="0.3896" style="stop-color:#FA0208"/>
			<stop  offset="0.6732" style="stop-color:#ED091A"/>
			<stop  offset="1" style="stop-color:#D91438"/>
		</linearGradient>
		<path class="st0" d="M282,1658.2C407.2,1784.7,932.1,2048,932.1,2048s524.9-263.3,650.2-389.8c375.9-379.7,375.9-995.2,0-1374.9
			C1402.1,101.3,1168.2,7.5,932.1,0C696,7.5,462.1,101.3,282,283.3C-94,662.9-94,1278.5,282,1658.2z"/>
		<path class="st1" d="M1587.5,565c-165.4-279.8-414-286.4-655.3-170c-241.4-116.4-490-109.8-655.4,170
			c-112,189.4-93.8,348.5-1.1,476.9c-68.6,127.1-96.2,237.9-61.1,297.3c64.8,109.6,391,126.4,717.6,53.9
			c326.6,72.4,652.8,55.7,717.6-53.9c35.1-59.4,7.4-170.2-61.2-297.3C1681.3,913.5,1699.4,754.4,1587.5,565z"/>
		<g>
			<linearGradient id="SVGID_2_" gradientUnits="userSpaceOnUse" x1="424.2305" y1="1444.17" x2="608.9398" y2="1213.2388">
				<stop  offset="0" style="stop-color:#9FE3FC"/>
				<stop  offset="0.1363" style="stop-color:#96DEFC"/>
				<stop  offset="0.6772" style="stop-color:#76CDFC"/>
				<stop  offset="0.977" style="stop-color:#6AC7FC"/>
			</linearGradient>
			<path class="st2" d="M301.8,1034.6c-65.8,122-92.4,228.4-58.7,285.4c62.2,105.3,375.4,121.3,689,51.8
				C677.6,1315.4,423.1,1202.6,301.8,1034.6z"/>
			<linearGradient id="SVGID_3_" gradientUnits="userSpaceOnUse" x1="1490.9851" y1="483.9383" x2="1308.8953" y2="663.3497">
				<stop  offset="0" style="stop-color:#9FE3FC"/>
				<stop  offset="0.1363" style="stop-color:#96DEFC"/>
				<stop  offset="0.6772" style="stop-color:#76CDFC"/>
				<stop  offset="0.977" style="stop-color:#6AC7FC"/>
			</linearGradient>
			<path class="st3" d="M1562.4,1034.6c89-123.3,106.5-276-1.1-457.9c-158.8-268.6-397.5-275-629.2-163.2
				C1191.9,538.8,1442.6,812.5,1562.4,1034.6z"/>
			<linearGradient id="SVGID_4_" gradientUnits="userSpaceOnUse" x1="462.184" y1="560.6521" x2="750.9324" y2="865.5499">
				<stop  offset="8.960704e-04" style="stop-color:#FCB0DA"/>
				<stop  offset="0.4762" style="stop-color:#FCA1D6"/>
				<stop  offset="1" style="stop-color:#FC95D3"/>
			</linearGradient>
			<path class="st4" d="M932.1,413.5C700.4,301.8,461.7,308.1,302.8,576.8c-107.5,181.9-90.1,334.6-1.1,457.9
				C421.6,812.5,672.3,538.8,932.1,413.5z"/>
			<linearGradient id="SVGID_5_" gradientUnits="userSpaceOnUse" x1="1501.4667" y1="1462.3446" x2="1267.1111" y2="1223.4551">
				<stop  offset="8.960704e-04" style="stop-color:#FCB0DA"/>
				<stop  offset="0.4762" style="stop-color:#FCA1D6"/>
				<stop  offset="1" style="stop-color:#FC95D3"/>
			</linearGradient>
			<path class="st5" d="M1562.4,1034.6c-121.3,168-375.8,280.8-630.3,337.2c313.6,69.5,626.8,53.5,689-51.8
				C1654.9,1263,1628.3,1156.7,1562.4,1034.6z"/>
			<path class="st6" d="M1562.4,1034.6c-119.8-222.1-370.5-495.8-630.3-621.1c-259.8,125.3-510.5,399-630.3,621.1
				c121.3,168,375.9,280.8,630.3,337.2C1186.6,1315.4,1441.1,1202.6,1562.4,1034.6z"/>
			
				<radialGradient id="SVGID_6_" cx="932.1021" cy="892.6761" r="764.7488" fx="929.6359" fy="931.3905" gradientUnits="userSpaceOnUse">
				<stop  offset="1.210741e-02" style="stop-color:#FAFAFA"/>
				<stop  offset="0.2976" style="stop-color:#F9F6FA"/>
				<stop  offset="0.6075" style="stop-color:#F5E9FB"/>
				<stop  offset="0.9278" style="stop-color:#EED3FC"/>
				<stop  offset="1" style="stop-color:#ECCDFC"/>
			</radialGradient>
			<path class="st7" d="M1562.4,1034.6c-119.8-222.1-370.5-495.8-630.3-621.1c-259.8,125.3-510.5,399-630.3,621.1
				c121.3,168,375.9,280.8,630.3,337.2C1186.6,1315.4,1441.1,1202.6,1562.4,1034.6z"/>
		</g>
	</g>
</g>
</svg>
